<mxfile host="app.diagrams.net" modified="2024-08-12T08:40:31.617Z" agent="Mozilla/5.0 (Windows NT 10.0; Win64; x64) AppleWebKit/537.36 (KHTML, like Gecko) Chrome/127.0.0.0 Safari/537.36" etag="kuOdRVDfZFr_PN9IDM3Y" version="24.2.3" type="github">
  <diagram id="C5RBs43oDa-KdzZeNtuy" name="Page-1">
    <mxGraphModel dx="1464" dy="731" grid="1" gridSize="10" guides="1" tooltips="1" connect="1" arrows="1" fold="1" page="1" pageScale="1" pageWidth="827" pageHeight="1169" math="0" shadow="0">
      <root>
        <mxCell id="WIyWlLk6GJQsqaUBKTNV-0" />
        <mxCell id="WIyWlLk6GJQsqaUBKTNV-1" parent="WIyWlLk6GJQsqaUBKTNV-0" />
        <mxCell id="j1Ywi0r_8y9m8VcGR0m9-18" value="" style="rounded=0;whiteSpace=wrap;html=1;" vertex="1" parent="WIyWlLk6GJQsqaUBKTNV-1">
          <mxGeometry x="60" y="250" width="540" height="160" as="geometry" />
        </mxCell>
        <mxCell id="j1Ywi0r_8y9m8VcGR0m9-5" value="" style="rounded=0;whiteSpace=wrap;html=1;" vertex="1" parent="WIyWlLk6GJQsqaUBKTNV-1">
          <mxGeometry x="60" y="428" width="540" height="202" as="geometry" />
        </mxCell>
        <mxCell id="WIyWlLk6GJQsqaUBKTNV-7" value="lumberMill" style="rounded=1;whiteSpace=wrap;html=1;fontSize=12;glass=0;strokeWidth=1;shadow=0;" parent="WIyWlLk6GJQsqaUBKTNV-1" vertex="1">
          <mxGeometry x="270" y="310" width="120" height="40" as="geometry" />
        </mxCell>
        <mxCell id="WIyWlLk6GJQsqaUBKTNV-11" value="Distributor/Retailer" style="rounded=1;whiteSpace=wrap;html=1;fontSize=12;glass=0;strokeWidth=1;shadow=0;" parent="WIyWlLk6GJQsqaUBKTNV-1" vertex="1">
          <mxGeometry x="120" y="310" width="120" height="40" as="geometry" />
        </mxCell>
        <mxCell id="j1Ywi0r_8y9m8VcGR0m9-0" value="Construction,Renovation and Demolition&lt;div&gt;(CRD)&lt;/div&gt;" style="rounded=1;whiteSpace=wrap;html=1;fontSize=12;glass=0;strokeWidth=1;shadow=0;" vertex="1" parent="WIyWlLk6GJQsqaUBKTNV-1">
          <mxGeometry x="420" y="310" width="160" height="50" as="geometry" />
        </mxCell>
        <mxCell id="j1Ywi0r_8y9m8VcGR0m9-3" value="auditors" style="shape=image;verticalLabelPosition=bottom;labelBackgroundColor=default;verticalAlign=top;aspect=fixed;imageAspect=0;image=data:image/png,iVBORw0KGgoAAAANSUhEUgAAAEIAAAA9CAIAAACWQiirAAALvklEQVRoBe2a+VPTSRbA9w/Z33Zqt2prj5lVwo6IF7gDUyqoMI4wakAEhIScEsjBFUI4wiUgyKEcYSIkMAx4c8sRlCQQ7kMGR4IQFBEMAeSb7q3+fhNgdrcEJ19Xa8qXTvfr7vee/enX/SUEfwd/E/K73wQF/ITxMeXxUzY+ZYP0Hfh0qEjfUjsCfsqGHZtHuuv/IxsAQFRIX/uWgO8FA7NYlhbmDZOjQ7q2h801D27LH9wu76ivHNC2Tk2Ovl56tWUB5KjkY8zNTHU2VNUWSxQZNHnS2ZL4UyXx3mUJp4rF3mWJZxXptFtlKb1djabXS+QQ4FHIxAAQ9nW3ytMYJfGnSsWe3yccvyE9UZHoVZnsXZn8TUWSt0J6slxyvFR8vFji+8P1BOOzp2SRkInReluRK/QqErmXxh4tjTtWGnesJNZWx+I63i1F+pGrfPeyNMas4QkpJKRhDOo60llf5Ue4ForcC4TuhQL3nPDDWVzXAr57odC9SGAdLBS6Fwjc0IjQPZPhJM/grq2u2k9CDoZ5eVmewc1gOOXx/pXLO5zNdUmhOZdEn6iU+sro+3PDXfN4h3PD8YIU11xr1yUpZK+m7e7HgqHtbJAEOV1m7bvMPiij702h7auVnVtozVxS55WJv00I/jKTtf8y60DmRmEfuMw6gIxDHK/E+q+u2JsQcrJRni0U+3+eSnOSBjmmhu7vLWNhj3KhvhgOKl50FuRFeooDHFJC9qSEOslCnVJoToQiQ90vo/0p2s4GOxNCAsbSq4V03jdi/8/jzu+OD3Dsl7NgTy7UFoDeYtingOM/GlrzC0VeUdRd0dQvxOd3xQc4iAMcYv13xfnvTgikRJ37e3VxyofHMDx5HBu4X3T2L7zTf23KPAe7L8NH2VCTD3qLQf8NOFQNJ+686q2qvy7IjTyeEOwcF+AoDnBMCzuYHOIsPPM34Zk/X5Ox1tbW7CEhIRsjfRqe7xfsk5/lsg6ZG8XwYQZ4lAW0+bC3BPYrEMZoHXzSCH5qnNcohm6mditEmu8FU3cTR1QCSYAjx+sPVyUXzWbzB8bo17QzTvyJdfyzweIQqE6G6jTwMAvg2YB9CjBUBUbr4Pgd+PgunLgNx2vhsAoOfA/RkStquOwf/PXvr4gDPzzGcF93sMcfpf7/MN8TwXYp7EyFCOMq6LkO+uRwUAmHa8BoLRytBcM1cEgF+xVAXwI0+VCXZ7wVwz7xWVZc0Ic/VLPTP4ed2p3P2AdbxfBBAuyUwa5M0J0LdEVQXwr6FThJNRyuAkMqOHADsfVeA5qrsDsbqFOl53fnJXHsOVEQkvE9FYZZClIjKkVfw/Z4RNKRDNRp1lvecw3qy9ANGayAAxUIqa8c9JRAbSF4dAWq06E2o5TvVpIj/vAYEMLpJ+OjFQLYHAWbY2Gb1JaQK0Cbj46WvhTq5bBPDvRl6PGlLYLdeejgqVNhV7KmIFjX2fhRYEBggZoy2MAHzTGgNR62J6OdfpiFjpa2AJ2unuuw5xrUFUFtAdTkwUfZoCsddMrgA/GbpjSwuvJxYFgslt4q2MCHzTGwJRagG5JifWQ9ykF7r7kKNVdBdx7ovgIfZsGuDJSxNilsjsI6CuxkIOduEIvAxlpBvQA2R+MkYtAmhR2IBHZlonU/ykblYRboygSdabBTBtqT4IN4eD8c66v9iDAsMyOgPsaKgXISBx8kgPZk2CGD6lSUGXUaRACpoCMZ5aE1HrbEWO5GWgwDHxEGWF7EWtJBgxBlgygtcaBVglbcngjbk2B7MspAWyJ4IIGtYnSLGgSWljRgJuG3WRI+jGzsJTbUCO4LYXM0QNmIQU+tlljYGoc2Hi1dAlrFqNsSS3CCuxHr/bc23O1RyMQAK8tYRz6sxy96cwxojgZNMWjX8XuPqAi8JjxdjUKsNdOy9Nye1W/4kokBIbQYH1saJLBJaF209YDh937jsCElCmuItzzVb6zDToVkDETysw5rTICN+I/CXyydOGkxsCnackeIDdbbufSt7uRjQAwztxQsV7Es90WwybZ04kShay0y115arBZgL6a2rsNO/T1gvJ5/WSeZVoQuKNkrdbz1OwLsnhC7J1y/I1i5yXtVxX5WETZ7g0XKc3YDnkyMdQwzTD970ak0VjCmVExDJXOmkmlUsp8r2S9U7LlK1rNKpkHJnFKxninoz7t+XDSZyfpi99djAACWl5efzz0fHR1Vq9V1dTcLi4qSk1I6ctjPVWGGKrZBxUIwSpZByZmu4hhUHIMKDRpUrOdKxt1sUfrl7PLy8vr6+92a7vHxMaPRaFo2WSyWjT3eufLOGCaTaeKniba2NpVKlZOTk5SYKBKJIiMjeTxeJJ8fwRekRl/qK2QYq5jTVezpKs5MTaSxNmruZoyxLma2RjjzA89YxRouYqRGh4dHCiIiIgjH6OioRKk0OztboVDU19ePj4+vvsvXcO+GMTY2du3aNVGUiMViMxgMNpvN5XK4XA6Hw2Gx2SwWi8lkhjFZGUKGNo8+q+TM34yav5fwsjFloSltoSFl4a5krkagL2BkicLCmEwGCwmbzeZwuFwu5xKXw2azmSwmg8kQCoVKpXJpcXGHCXkHjOnpaT6fHxwUFHIxhEaj0XGhIQmlheKttUMLCaUJWaHVifTHpbzZWsmLe7IX9WkztQkjJTxlIiOGE3rR5kHHvWmh1j4Rk06nB18MDgoKLCwsxDBsJyQ7xXjz5k2KTObr6xsUFBQUuClBgYHWLt5sdM9fQOOCsMB03sUrwpAcQags/CKPhhwDLlh9COMt9ZbAQYEBAQFUKrW9vZ1MDK1G4+3tRaVS/dDbz88Pr/Caijqb1cYklUr97hzV5yxezlB9z1LPnPM7h0w3fDcV5I96xAiK4efnd/r0aVFUlMlk2pZkp9nIvZLr6enxne93Pr4+Pr428fHxRS9U8Ddq8CGriQ+ytc4TBj5IrLabcZAb3iMmbR7fnj595syZ3t5ecjBMJlMYne7p6enl7e3t5U3UqPHy9kI1LvgwUeGjaJaYthkRA17ICffd8EBdZLT1ZY165OgRpVJJDsbY2NjJkyeOHjnqQYjnL1pPD49j1oFNxTbgsWXS5rZljlCJCVuQYx4em5aHDx9OTEwkB6Ozs/MrXNw3xc3d3d0NfxGKG+qiYmvd3N3QPNHf8LO6fG01RQ1uYzOzdmzR3FxcXC5cuLC43ZN3R3fj1q1bhw4ePHTokKuri6uLC1G7INUF1a6uaMQV7yIFlc037oFbokE0Y3MijFAAmzUenoiKW7m6HDhw4OjRI0aj8e0J2SmGs7Ozk5OT81tkn/M+Z2dnokZm+1DZu/c/PJCNs/NeZ+d9hLXVEh/F53AHwgvVe/bsOXjw4Pj4OAkYdXV1FApl165dux0IoaCGghfryGaDzzk4UCgUBwrSrX1bS8EVfGbD5xdhcVeKA8WRQvmnoyOF4rBnz5dqtdpejPX19YGBAZlMJk2QSiQJ8RKJWCyOiY2Njo4WiUQCgYDP50dERISHh3O5lzgc/AMFk8lgMBhhDDo9jE6n02n4i04PC6MzGGFMBoPJZOIfZLiXLl0KD+dFRETwI/lCoTAqOio2NlYsjpdKpbKUlMzMzOzs7IKC/ImJibf/ON/+UK2tra2urq6srCwvLy8tLS0sLMzPzxuNxpmZGYPB8PTp08nJyYmJibGxseHh4cHBwf7+fr1e39PTo9PpNBpNt6abEI1Go9VqdTpdb0+PXq/v7+8fGhoaGRkZHx+fmJiYnJycmpqanp6enZ2dm5ubf/lycXHRZDKZzWZiAevr629JyPYYwCYQQgCAxWLBMOwNLmu4EJBmXJaXl00m02tclv5LiHGiNuFiNptXVlZWcSGiEZExDLPgYvvHt/nFZHuM/7kHAGwTl2AmfC0Wy07sCeOdW25d2K/E2BpiW31kZGRycnJbM3sM3jvG4uJidXV1bW2tnX9Pejvk+8UAAOh0OrlcXlpaOjQ09Pal2DP7fjGMRqNKpZKXy+VyeU1NzatX5P9PKgL+32gn7GTZIqOAAAAAAElFTkSuQmCC;" vertex="1" parent="WIyWlLk6GJQsqaUBKTNV-1">
          <mxGeometry x="147" y="640" width="66" height="61" as="geometry" />
        </mxCell>
        <mxCell id="j1Ywi0r_8y9m8VcGR0m9-6" value="Ethereum Blockchain" style="text;html=1;align=center;verticalAlign=middle;resizable=0;points=[];autosize=1;strokeColor=none;fillColor=none;" vertex="1" parent="WIyWlLk6GJQsqaUBKTNV-1">
          <mxGeometry x="461" y="406" width="140" height="30" as="geometry" />
        </mxCell>
        <mxCell id="j1Ywi0r_8y9m8VcGR0m9-7" value="WritingNode" style="rounded=1;whiteSpace=wrap;html=1;fontSize=12;glass=0;strokeWidth=1;shadow=0;" vertex="1" parent="WIyWlLk6GJQsqaUBKTNV-1">
          <mxGeometry x="120" y="550" width="120" height="35" as="geometry" />
        </mxCell>
        <mxCell id="j1Ywi0r_8y9m8VcGR0m9-8" value="Smart contract" style="rounded=1;whiteSpace=wrap;html=1;fontSize=12;glass=0;strokeWidth=1;shadow=0;" vertex="1" parent="WIyWlLk6GJQsqaUBKTNV-1">
          <mxGeometry x="120" y="480" width="120" height="40" as="geometry" />
        </mxCell>
        <mxCell id="j1Ywi0r_8y9m8VcGR0m9-9" value="members" style="shape=image;verticalLabelPosition=bottom;labelBackgroundColor=default;verticalAlign=top;aspect=fixed;imageAspect=0;image=data:image/png,iVBORw0KGgoAAAANSUhEUgAAAEIAAAA9CAIAAACWQiirAAALvklEQVRoBe2a+VPTSRbA9w/Z33Zqt2prj5lVwo6IF7gDUyqoMI4wakAEhIScEsjBFUI4wiUgyKEcYSIkMAx4c8sRlCQQ7kMGR4IQFBEMAeSb7q3+fhNgdrcEJ19Xa8qXTvfr7vee/enX/SUEfwd/E/K73wQF/ITxMeXxUzY+ZYP0Hfh0qEjfUjsCfsqGHZtHuuv/IxsAQFRIX/uWgO8FA7NYlhbmDZOjQ7q2h801D27LH9wu76ivHNC2Tk2Ovl56tWUB5KjkY8zNTHU2VNUWSxQZNHnS2ZL4UyXx3mUJp4rF3mWJZxXptFtlKb1djabXS+QQ4FHIxAAQ9nW3ytMYJfGnSsWe3yccvyE9UZHoVZnsXZn8TUWSt0J6slxyvFR8vFji+8P1BOOzp2SRkInReluRK/QqErmXxh4tjTtWGnesJNZWx+I63i1F+pGrfPeyNMas4QkpJKRhDOo60llf5Ue4ForcC4TuhQL3nPDDWVzXAr57odC9SGAdLBS6Fwjc0IjQPZPhJM/grq2u2k9CDoZ5eVmewc1gOOXx/pXLO5zNdUmhOZdEn6iU+sro+3PDXfN4h3PD8YIU11xr1yUpZK+m7e7HgqHtbJAEOV1m7bvMPiij702h7auVnVtozVxS55WJv00I/jKTtf8y60DmRmEfuMw6gIxDHK/E+q+u2JsQcrJRni0U+3+eSnOSBjmmhu7vLWNhj3KhvhgOKl50FuRFeooDHFJC9qSEOslCnVJoToQiQ90vo/0p2s4GOxNCAsbSq4V03jdi/8/jzu+OD3Dsl7NgTy7UFoDeYtingOM/GlrzC0VeUdRd0dQvxOd3xQc4iAMcYv13xfnvTgikRJ37e3VxyofHMDx5HBu4X3T2L7zTf23KPAe7L8NH2VCTD3qLQf8NOFQNJ+686q2qvy7IjTyeEOwcF+AoDnBMCzuYHOIsPPM34Zk/X5Ox1tbW7CEhIRsjfRqe7xfsk5/lsg6ZG8XwYQZ4lAW0+bC3BPYrEMZoHXzSCH5qnNcohm6mditEmu8FU3cTR1QCSYAjx+sPVyUXzWbzB8bo17QzTvyJdfyzweIQqE6G6jTwMAvg2YB9CjBUBUbr4Pgd+PgunLgNx2vhsAoOfA/RkStquOwf/PXvr4gDPzzGcF93sMcfpf7/MN8TwXYp7EyFCOMq6LkO+uRwUAmHa8BoLRytBcM1cEgF+xVAXwI0+VCXZ7wVwz7xWVZc0Ic/VLPTP4ed2p3P2AdbxfBBAuyUwa5M0J0LdEVQXwr6FThJNRyuAkMqOHADsfVeA5qrsDsbqFOl53fnJXHsOVEQkvE9FYZZClIjKkVfw/Z4RNKRDNRp1lvecw3qy9ANGayAAxUIqa8c9JRAbSF4dAWq06E2o5TvVpIj/vAYEMLpJ+OjFQLYHAWbY2Gb1JaQK0Cbj46WvhTq5bBPDvRl6PGlLYLdeejgqVNhV7KmIFjX2fhRYEBggZoy2MAHzTGgNR62J6OdfpiFjpa2AJ2unuuw5xrUFUFtAdTkwUfZoCsddMrgA/GbpjSwuvJxYFgslt4q2MCHzTGwJRagG5JifWQ9ykF7r7kKNVdBdx7ovgIfZsGuDJSxNilsjsI6CuxkIOduEIvAxlpBvQA2R+MkYtAmhR2IBHZlonU/ykblYRboygSdabBTBtqT4IN4eD8c66v9iDAsMyOgPsaKgXISBx8kgPZk2CGD6lSUGXUaRACpoCMZ5aE1HrbEWO5GWgwDHxEGWF7EWtJBgxBlgygtcaBVglbcngjbk2B7MspAWyJ4IIGtYnSLGgSWljRgJuG3WRI+jGzsJTbUCO4LYXM0QNmIQU+tlljYGoc2Hi1dAlrFqNsSS3CCuxHr/bc23O1RyMQAK8tYRz6sxy96cwxojgZNMWjX8XuPqAi8JjxdjUKsNdOy9Nye1W/4kokBIbQYH1saJLBJaF209YDh937jsCElCmuItzzVb6zDToVkDETysw5rTICN+I/CXyydOGkxsCnackeIDdbbufSt7uRjQAwztxQsV7Es90WwybZ04kShay0y115arBZgL6a2rsNO/T1gvJ5/WSeZVoQuKNkrdbz1OwLsnhC7J1y/I1i5yXtVxX5WETZ7g0XKc3YDnkyMdQwzTD970ak0VjCmVExDJXOmkmlUsp8r2S9U7LlK1rNKpkHJnFKxninoz7t+XDSZyfpi99djAACWl5efzz0fHR1Vq9V1dTcLi4qSk1I6ctjPVWGGKrZBxUIwSpZByZmu4hhUHIMKDRpUrOdKxt1sUfrl7PLy8vr6+92a7vHxMaPRaFo2WSyWjT3eufLOGCaTaeKniba2NpVKlZOTk5SYKBKJIiMjeTxeJJ8fwRekRl/qK2QYq5jTVezpKs5MTaSxNmruZoyxLma2RjjzA89YxRouYqRGh4dHCiIiIgjH6OioRKk0OztboVDU19ePj4+vvsvXcO+GMTY2du3aNVGUiMViMxgMNpvN5XK4XA6Hw2Gx2SwWi8lkhjFZGUKGNo8+q+TM34yav5fwsjFloSltoSFl4a5krkagL2BkicLCmEwGCwmbzeZwuFwu5xKXw2azmSwmg8kQCoVKpXJpcXGHCXkHjOnpaT6fHxwUFHIxhEaj0XGhIQmlheKttUMLCaUJWaHVifTHpbzZWsmLe7IX9WkztQkjJTxlIiOGE3rR5kHHvWmh1j4Rk06nB18MDgoKLCwsxDBsJyQ7xXjz5k2KTObr6xsUFBQUuClBgYHWLt5sdM9fQOOCsMB03sUrwpAcQags/CKPhhwDLlh9COMt9ZbAQYEBAQFUKrW9vZ1MDK1G4+3tRaVS/dDbz88Pr/Caijqb1cYklUr97hzV5yxezlB9z1LPnPM7h0w3fDcV5I96xAiK4efnd/r0aVFUlMlk2pZkp9nIvZLr6enxne93Pr4+Pr428fHxRS9U8Ddq8CGriQ+ytc4TBj5IrLabcZAb3iMmbR7fnj595syZ3t5ecjBMJlMYne7p6enl7e3t5U3UqPHy9kI1LvgwUeGjaJaYthkRA17ICffd8EBdZLT1ZY165OgRpVJJDsbY2NjJkyeOHjnqQYjnL1pPD49j1oFNxTbgsWXS5rZljlCJCVuQYx4em5aHDx9OTEwkB6Ozs/MrXNw3xc3d3d0NfxGKG+qiYmvd3N3QPNHf8LO6fG01RQ1uYzOzdmzR3FxcXC5cuLC43ZN3R3fj1q1bhw4ePHTokKuri6uLC1G7INUF1a6uaMQV7yIFlc037oFbokE0Y3MijFAAmzUenoiKW7m6HDhw4OjRI0aj8e0J2SmGs7Ozk5OT81tkn/M+Z2dnokZm+1DZu/c/PJCNs/NeZ+d9hLXVEh/F53AHwgvVe/bsOXjw4Pj4OAkYdXV1FApl165dux0IoaCGghfryGaDzzk4UCgUBwrSrX1bS8EVfGbD5xdhcVeKA8WRQvmnoyOF4rBnz5dqtdpejPX19YGBAZlMJk2QSiQJ8RKJWCyOiY2Njo4WiUQCgYDP50dERISHh3O5lzgc/AMFk8lgMBhhDDo9jE6n02n4i04PC6MzGGFMBoPJZOIfZLiXLl0KD+dFRETwI/lCoTAqOio2NlYsjpdKpbKUlMzMzOzs7IKC/ImJibf/ON/+UK2tra2urq6srCwvLy8tLS0sLMzPzxuNxpmZGYPB8PTp08nJyYmJibGxseHh4cHBwf7+fr1e39PTo9PpNBpNt6abEI1Go9VqdTpdb0+PXq/v7+8fGhoaGRkZHx+fmJiYnJycmpqanp6enZ2dm5ubf/lycXHRZDKZzWZiAevr629JyPYYwCYQQgCAxWLBMOwNLmu4EJBmXJaXl00m02tclv5LiHGiNuFiNptXVlZWcSGiEZExDLPgYvvHt/nFZHuM/7kHAGwTl2AmfC0Wy07sCeOdW25d2K/E2BpiW31kZGRycnJbM3sM3jvG4uJidXV1bW2tnX9Pejvk+8UAAOh0OrlcXlpaOjQ09Pal2DP7fjGMRqNKpZKXy+VyeU1NzatX5P9PKgL+32gn7GTZIqOAAAAAAElFTkSuQmCC;" vertex="1" parent="WIyWlLk6GJQsqaUBKTNV-1">
          <mxGeometry x="374" y="160" width="66" height="61" as="geometry" />
        </mxCell>
        <mxCell id="j1Ywi0r_8y9m8VcGR0m9-10" value="" style="endArrow=classic;html=1;rounded=0;exitX=0.5;exitY=0;exitDx=0;exitDy=0;entryX=0.5;entryY=1;entryDx=0;entryDy=0;" edge="1" parent="WIyWlLk6GJQsqaUBKTNV-1" source="j1Ywi0r_8y9m8VcGR0m9-3" target="j1Ywi0r_8y9m8VcGR0m9-7">
          <mxGeometry width="50" height="50" relative="1" as="geometry">
            <mxPoint x="110" y="640" as="sourcePoint" />
            <mxPoint x="160" y="590" as="targetPoint" />
          </mxGeometry>
        </mxCell>
        <mxCell id="j1Ywi0r_8y9m8VcGR0m9-12" value="Certification Standards" style="edgeLabel;html=1;align=center;verticalAlign=middle;resizable=0;points=[];" vertex="1" connectable="0" parent="j1Ywi0r_8y9m8VcGR0m9-10">
          <mxGeometry x="-0.2549" y="-4" relative="1" as="geometry">
            <mxPoint x="-35" as="offset" />
          </mxGeometry>
        </mxCell>
        <mxCell id="j1Ywi0r_8y9m8VcGR0m9-11" value="" style="endArrow=classic;html=1;rounded=0;exitX=0.5;exitY=1;exitDx=0;exitDy=0;entryX=0.5;entryY=0;entryDx=0;entryDy=0;" edge="1" parent="WIyWlLk6GJQsqaUBKTNV-1" source="j1Ywi0r_8y9m8VcGR0m9-9" target="WIyWlLk6GJQsqaUBKTNV-7">
          <mxGeometry width="50" height="50" relative="1" as="geometry">
            <mxPoint x="390" y="150" as="sourcePoint" />
            <mxPoint x="380" y="250" as="targetPoint" />
          </mxGeometry>
        </mxCell>
        <mxCell id="j1Ywi0r_8y9m8VcGR0m9-14" value="Woods supplychain data" style="edgeLabel;html=1;align=center;verticalAlign=middle;resizable=0;points=[];" vertex="1" connectable="0" parent="j1Ywi0r_8y9m8VcGR0m9-11">
          <mxGeometry x="0.0634" relative="1" as="geometry">
            <mxPoint y="18" as="offset" />
          </mxGeometry>
        </mxCell>
        <mxCell id="j1Ywi0r_8y9m8VcGR0m9-15" value="" style="endArrow=classic;html=1;rounded=0;exitX=0.5;exitY=0;exitDx=0;exitDy=0;entryX=0.5;entryY=1;entryDx=0;entryDy=0;" edge="1" parent="WIyWlLk6GJQsqaUBKTNV-1" source="j1Ywi0r_8y9m8VcGR0m9-7" target="j1Ywi0r_8y9m8VcGR0m9-8">
          <mxGeometry width="50" height="50" relative="1" as="geometry">
            <mxPoint x="390" y="600" as="sourcePoint" />
            <mxPoint x="440" y="550" as="targetPoint" />
          </mxGeometry>
        </mxCell>
        <mxCell id="j1Ywi0r_8y9m8VcGR0m9-38" value="Deploy/Update" style="edgeLabel;html=1;align=center;verticalAlign=middle;resizable=0;points=[];" vertex="1" connectable="0" parent="j1Ywi0r_8y9m8VcGR0m9-15">
          <mxGeometry x="-0.0235" y="-1" relative="1" as="geometry">
            <mxPoint y="-1" as="offset" />
          </mxGeometry>
        </mxCell>
        <mxCell id="j1Ywi0r_8y9m8VcGR0m9-17" value="ReadingNode" style="rounded=1;whiteSpace=wrap;html=1;fontSize=12;glass=0;strokeWidth=1;shadow=0;" vertex="1" parent="WIyWlLk6GJQsqaUBKTNV-1">
          <mxGeometry x="353" y="505" width="120" height="40" as="geometry" />
        </mxCell>
        <mxCell id="j1Ywi0r_8y9m8VcGR0m9-19" value="LogLog" style="text;html=1;align=center;verticalAlign=middle;resizable=0;points=[];autosize=1;strokeColor=none;fillColor=none;" vertex="1" parent="WIyWlLk6GJQsqaUBKTNV-1">
          <mxGeometry x="530" y="220" width="60" height="30" as="geometry" />
        </mxCell>
        <mxCell id="j1Ywi0r_8y9m8VcGR0m9-1" value="EndUsers" style="shape=image;verticalLabelPosition=bottom;labelBackgroundColor=default;verticalAlign=top;aspect=fixed;imageAspect=0;image=data:image/png,iVBORw0KGgoAAAANSUhEUgAAAEIAAAA9CAIAAACWQiirAAALvklEQVRoBe2a+VPTSRbA9w/Z33Zqt2prj5lVwo6IF7gDUyqoMI4wakAEhIScEsjBFUI4wiUgyKEcYSIkMAx4c8sRlCQQ7kMGR4IQFBEMAeSb7q3+fhNgdrcEJ19Xa8qXTvfr7vee/enX/SUEfwd/E/K73wQF/ITxMeXxUzY+ZYP0Hfh0qEjfUjsCfsqGHZtHuuv/IxsAQFRIX/uWgO8FA7NYlhbmDZOjQ7q2h801D27LH9wu76ivHNC2Tk2Ovl56tWUB5KjkY8zNTHU2VNUWSxQZNHnS2ZL4UyXx3mUJp4rF3mWJZxXptFtlKb1djabXS+QQ4FHIxAAQ9nW3ytMYJfGnSsWe3yccvyE9UZHoVZnsXZn8TUWSt0J6slxyvFR8vFji+8P1BOOzp2SRkInReluRK/QqErmXxh4tjTtWGnesJNZWx+I63i1F+pGrfPeyNMas4QkpJKRhDOo60llf5Ue4ForcC4TuhQL3nPDDWVzXAr57odC9SGAdLBS6Fwjc0IjQPZPhJM/grq2u2k9CDoZ5eVmewc1gOOXx/pXLO5zNdUmhOZdEn6iU+sro+3PDXfN4h3PD8YIU11xr1yUpZK+m7e7HgqHtbJAEOV1m7bvMPiij702h7auVnVtozVxS55WJv00I/jKTtf8y60DmRmEfuMw6gIxDHK/E+q+u2JsQcrJRni0U+3+eSnOSBjmmhu7vLWNhj3KhvhgOKl50FuRFeooDHFJC9qSEOslCnVJoToQiQ90vo/0p2s4GOxNCAsbSq4V03jdi/8/jzu+OD3Dsl7NgTy7UFoDeYtingOM/GlrzC0VeUdRd0dQvxOd3xQc4iAMcYv13xfnvTgikRJ37e3VxyofHMDx5HBu4X3T2L7zTf23KPAe7L8NH2VCTD3qLQf8NOFQNJ+686q2qvy7IjTyeEOwcF+AoDnBMCzuYHOIsPPM34Zk/X5Ox1tbW7CEhIRsjfRqe7xfsk5/lsg6ZG8XwYQZ4lAW0+bC3BPYrEMZoHXzSCH5qnNcohm6mditEmu8FU3cTR1QCSYAjx+sPVyUXzWbzB8bo17QzTvyJdfyzweIQqE6G6jTwMAvg2YB9CjBUBUbr4Pgd+PgunLgNx2vhsAoOfA/RkStquOwf/PXvr4gDPzzGcF93sMcfpf7/MN8TwXYp7EyFCOMq6LkO+uRwUAmHa8BoLRytBcM1cEgF+xVAXwI0+VCXZ7wVwz7xWVZc0Ic/VLPTP4ed2p3P2AdbxfBBAuyUwa5M0J0LdEVQXwr6FThJNRyuAkMqOHADsfVeA5qrsDsbqFOl53fnJXHsOVEQkvE9FYZZClIjKkVfw/Z4RNKRDNRp1lvecw3qy9ANGayAAxUIqa8c9JRAbSF4dAWq06E2o5TvVpIj/vAYEMLpJ+OjFQLYHAWbY2Gb1JaQK0Cbj46WvhTq5bBPDvRl6PGlLYLdeejgqVNhV7KmIFjX2fhRYEBggZoy2MAHzTGgNR62J6OdfpiFjpa2AJ2unuuw5xrUFUFtAdTkwUfZoCsddMrgA/GbpjSwuvJxYFgslt4q2MCHzTGwJRagG5JifWQ9ykF7r7kKNVdBdx7ovgIfZsGuDJSxNilsjsI6CuxkIOduEIvAxlpBvQA2R+MkYtAmhR2IBHZlonU/ykblYRboygSdabBTBtqT4IN4eD8c66v9iDAsMyOgPsaKgXISBx8kgPZk2CGD6lSUGXUaRACpoCMZ5aE1HrbEWO5GWgwDHxEGWF7EWtJBgxBlgygtcaBVglbcngjbk2B7MspAWyJ4IIGtYnSLGgSWljRgJuG3WRI+jGzsJTbUCO4LYXM0QNmIQU+tlljYGoc2Hi1dAlrFqNsSS3CCuxHr/bc23O1RyMQAK8tYRz6sxy96cwxojgZNMWjX8XuPqAi8JjxdjUKsNdOy9Nye1W/4kokBIbQYH1saJLBJaF209YDh937jsCElCmuItzzVb6zDToVkDETysw5rTICN+I/CXyydOGkxsCnackeIDdbbufSt7uRjQAwztxQsV7Es90WwybZ04kShay0y115arBZgL6a2rsNO/T1gvJ5/WSeZVoQuKNkrdbz1OwLsnhC7J1y/I1i5yXtVxX5WETZ7g0XKc3YDnkyMdQwzTD970ak0VjCmVExDJXOmkmlUsp8r2S9U7LlK1rNKpkHJnFKxninoz7t+XDSZyfpi99djAACWl5efzz0fHR1Vq9V1dTcLi4qSk1I6ctjPVWGGKrZBxUIwSpZByZmu4hhUHIMKDRpUrOdKxt1sUfrl7PLy8vr6+92a7vHxMaPRaFo2WSyWjT3eufLOGCaTaeKniba2NpVKlZOTk5SYKBKJIiMjeTxeJJ8fwRekRl/qK2QYq5jTVezpKs5MTaSxNmruZoyxLma2RjjzA89YxRouYqRGh4dHCiIiIgjH6OioRKk0OztboVDU19ePj4+vvsvXcO+GMTY2du3aNVGUiMViMxgMNpvN5XK4XA6Hw2Gx2SwWi8lkhjFZGUKGNo8+q+TM34yav5fwsjFloSltoSFl4a5krkagL2BkicLCmEwGCwmbzeZwuFwu5xKXw2azmSwmg8kQCoVKpXJpcXGHCXkHjOnpaT6fHxwUFHIxhEaj0XGhIQmlheKttUMLCaUJWaHVifTHpbzZWsmLe7IX9WkztQkjJTxlIiOGE3rR5kHHvWmh1j4Rk06nB18MDgoKLCwsxDBsJyQ7xXjz5k2KTObr6xsUFBQUuClBgYHWLt5sdM9fQOOCsMB03sUrwpAcQags/CKPhhwDLlh9COMt9ZbAQYEBAQFUKrW9vZ1MDK1G4+3tRaVS/dDbz88Pr/Caijqb1cYklUr97hzV5yxezlB9z1LPnPM7h0w3fDcV5I96xAiK4efnd/r0aVFUlMlk2pZkp9nIvZLr6enxne93Pr4+Pr428fHxRS9U8Ddq8CGriQ+ytc4TBj5IrLabcZAb3iMmbR7fnj595syZ3t5ecjBMJlMYne7p6enl7e3t5U3UqPHy9kI1LvgwUeGjaJaYthkRA17ICffd8EBdZLT1ZY165OgRpVJJDsbY2NjJkyeOHjnqQYjnL1pPD49j1oFNxTbgsWXS5rZljlCJCVuQYx4em5aHDx9OTEwkB6Ozs/MrXNw3xc3d3d0NfxGKG+qiYmvd3N3QPNHf8LO6fG01RQ1uYzOzdmzR3FxcXC5cuLC43ZN3R3fj1q1bhw4ePHTokKuri6uLC1G7INUF1a6uaMQV7yIFlc037oFbokE0Y3MijFAAmzUenoiKW7m6HDhw4OjRI0aj8e0J2SmGs7Ozk5OT81tkn/M+Z2dnokZm+1DZu/c/PJCNs/NeZ+d9hLXVEh/F53AHwgvVe/bsOXjw4Pj4OAkYdXV1FApl165dux0IoaCGghfryGaDzzk4UCgUBwrSrX1bS8EVfGbD5xdhcVeKA8WRQvmnoyOF4rBnz5dqtdpejPX19YGBAZlMJk2QSiQJ8RKJWCyOiY2Njo4WiUQCgYDP50dERISHh3O5lzgc/AMFk8lgMBhhDDo9jE6n02n4i04PC6MzGGFMBoPJZOIfZLiXLl0KD+dFRETwI/lCoTAqOio2NlYsjpdKpbKUlMzMzOzs7IKC/ImJibf/ON/+UK2tra2urq6srCwvLy8tLS0sLMzPzxuNxpmZGYPB8PTp08nJyYmJibGxseHh4cHBwf7+fr1e39PTo9PpNBpNt6abEI1Go9VqdTpdb0+PXq/v7+8fGhoaGRkZHx+fmJiYnJycmpqanp6enZ2dm5ubf/lycXHRZDKZzWZiAevr629JyPYYwCYQQgCAxWLBMOwNLmu4EJBmXJaXl00m02tclv5LiHGiNuFiNptXVlZWcSGiEZExDLPgYvvHt/nFZHuM/7kHAGwTl2AmfC0Wy07sCeOdW25d2K/E2BpiW31kZGRycnJbM3sM3jvG4uJidXV1bW2tnX9Pejvk+8UAAOh0OrlcXlpaOjQ09Pal2DP7fjGMRqNKpZKXy+VyeU1NzatX5P9PKgL+32gn7GTZIqOAAAAAAElFTkSuQmCC;" vertex="1" parent="WIyWlLk6GJQsqaUBKTNV-1">
          <mxGeometry x="147" y="160" width="66" height="61" as="geometry" />
        </mxCell>
        <mxCell id="j1Ywi0r_8y9m8VcGR0m9-22" value="" style="endArrow=classic;html=1;rounded=0;exitX=0.5;exitY=1;exitDx=0;exitDy=0;entryX=0.5;entryY=0;entryDx=0;entryDy=0;" edge="1" parent="WIyWlLk6GJQsqaUBKTNV-1" source="WIyWlLk6GJQsqaUBKTNV-7" target="j1Ywi0r_8y9m8VcGR0m9-32">
          <mxGeometry width="50" height="50" relative="1" as="geometry">
            <mxPoint x="290" y="670" as="sourcePoint" />
            <mxPoint x="270" y="430" as="targetPoint" />
          </mxGeometry>
        </mxCell>
        <mxCell id="j1Ywi0r_8y9m8VcGR0m9-23" value="Tokenization" style="edgeLabel;html=1;align=center;verticalAlign=middle;resizable=0;points=[];" vertex="1" connectable="0" parent="j1Ywi0r_8y9m8VcGR0m9-22">
          <mxGeometry x="0.2554" y="-1" relative="1" as="geometry">
            <mxPoint x="18" as="offset" />
          </mxGeometry>
        </mxCell>
        <mxCell id="j1Ywi0r_8y9m8VcGR0m9-24" value="" style="endArrow=classic;html=1;rounded=0;entryX=0.5;entryY=0;entryDx=0;entryDy=0;exitX=0.5;exitY=1;exitDx=0;exitDy=0;" edge="1" parent="WIyWlLk6GJQsqaUBKTNV-1" source="WIyWlLk6GJQsqaUBKTNV-11" target="j1Ywi0r_8y9m8VcGR0m9-8">
          <mxGeometry width="50" height="50" relative="1" as="geometry">
            <mxPoint x="210" y="290" as="sourcePoint" />
            <mxPoint x="260" y="240" as="targetPoint" />
          </mxGeometry>
        </mxCell>
        <mxCell id="j1Ywi0r_8y9m8VcGR0m9-25" value="Transfer" style="edgeLabel;html=1;align=center;verticalAlign=middle;resizable=0;points=[];" vertex="1" connectable="0" parent="j1Ywi0r_8y9m8VcGR0m9-24">
          <mxGeometry x="-0.3222" y="3" relative="1" as="geometry">
            <mxPoint as="offset" />
          </mxGeometry>
        </mxCell>
        <mxCell id="j1Ywi0r_8y9m8VcGR0m9-26" value="" style="endArrow=classic;html=1;rounded=0;exitX=0.5;exitY=1;exitDx=0;exitDy=0;entryX=0.75;entryY=0;entryDx=0;entryDy=0;" edge="1" parent="WIyWlLk6GJQsqaUBKTNV-1" source="j1Ywi0r_8y9m8VcGR0m9-0" target="j1Ywi0r_8y9m8VcGR0m9-32">
          <mxGeometry width="50" height="50" relative="1" as="geometry">
            <mxPoint x="390" y="300" as="sourcePoint" />
            <mxPoint x="410" y="410" as="targetPoint" />
          </mxGeometry>
        </mxCell>
        <mxCell id="j1Ywi0r_8y9m8VcGR0m9-27" value="Tokenization" style="edgeLabel;html=1;align=center;verticalAlign=middle;resizable=0;points=[];" vertex="1" connectable="0" parent="j1Ywi0r_8y9m8VcGR0m9-26">
          <mxGeometry x="0.2554" y="-1" relative="1" as="geometry">
            <mxPoint x="18" as="offset" />
          </mxGeometry>
        </mxCell>
        <mxCell id="j1Ywi0r_8y9m8VcGR0m9-28" value="ReadingNode" style="rounded=1;whiteSpace=wrap;html=1;fontSize=12;glass=0;strokeWidth=1;shadow=0;" vertex="1" parent="WIyWlLk6GJQsqaUBKTNV-1">
          <mxGeometry x="480" y="505" width="120" height="40" as="geometry" />
        </mxCell>
        <mxCell id="j1Ywi0r_8y9m8VcGR0m9-29" value="users" style="shape=image;verticalLabelPosition=bottom;labelBackgroundColor=default;verticalAlign=top;aspect=fixed;imageAspect=0;image=data:image/png,iVBORw0KGgoAAAANSUhEUgAAAEIAAAA9CAIAAACWQiirAAALvklEQVRoBe2a+VPTSRbA9w/Z33Zqt2prj5lVwo6IF7gDUyqoMI4wakAEhIScEsjBFUI4wiUgyKEcYSIkMAx4c8sRlCQQ7kMGR4IQFBEMAeSb7q3+fhNgdrcEJ19Xa8qXTvfr7vee/enX/SUEfwd/E/K73wQF/ITxMeXxUzY+ZYP0Hfh0qEjfUjsCfsqGHZtHuuv/IxsAQFRIX/uWgO8FA7NYlhbmDZOjQ7q2h801D27LH9wu76ivHNC2Tk2Ovl56tWUB5KjkY8zNTHU2VNUWSxQZNHnS2ZL4UyXx3mUJp4rF3mWJZxXptFtlKb1djabXS+QQ4FHIxAAQ9nW3ytMYJfGnSsWe3yccvyE9UZHoVZnsXZn8TUWSt0J6slxyvFR8vFji+8P1BOOzp2SRkInReluRK/QqErmXxh4tjTtWGnesJNZWx+I63i1F+pGrfPeyNMas4QkpJKRhDOo60llf5Ue4ForcC4TuhQL3nPDDWVzXAr57odC9SGAdLBS6Fwjc0IjQPZPhJM/grq2u2k9CDoZ5eVmewc1gOOXx/pXLO5zNdUmhOZdEn6iU+sro+3PDXfN4h3PD8YIU11xr1yUpZK+m7e7HgqHtbJAEOV1m7bvMPiij702h7auVnVtozVxS55WJv00I/jKTtf8y60DmRmEfuMw6gIxDHK/E+q+u2JsQcrJRni0U+3+eSnOSBjmmhu7vLWNhj3KhvhgOKl50FuRFeooDHFJC9qSEOslCnVJoToQiQ90vo/0p2s4GOxNCAsbSq4V03jdi/8/jzu+OD3Dsl7NgTy7UFoDeYtingOM/GlrzC0VeUdRd0dQvxOd3xQc4iAMcYv13xfnvTgikRJ37e3VxyofHMDx5HBu4X3T2L7zTf23KPAe7L8NH2VCTD3qLQf8NOFQNJ+686q2qvy7IjTyeEOwcF+AoDnBMCzuYHOIsPPM34Zk/X5Ox1tbW7CEhIRsjfRqe7xfsk5/lsg6ZG8XwYQZ4lAW0+bC3BPYrEMZoHXzSCH5qnNcohm6mditEmu8FU3cTR1QCSYAjx+sPVyUXzWbzB8bo17QzTvyJdfyzweIQqE6G6jTwMAvg2YB9CjBUBUbr4Pgd+PgunLgNx2vhsAoOfA/RkStquOwf/PXvr4gDPzzGcF93sMcfpf7/MN8TwXYp7EyFCOMq6LkO+uRwUAmHa8BoLRytBcM1cEgF+xVAXwI0+VCXZ7wVwz7xWVZc0Ic/VLPTP4ed2p3P2AdbxfBBAuyUwa5M0J0LdEVQXwr6FThJNRyuAkMqOHADsfVeA5qrsDsbqFOl53fnJXHsOVEQkvE9FYZZClIjKkVfw/Z4RNKRDNRp1lvecw3qy9ANGayAAxUIqa8c9JRAbSF4dAWq06E2o5TvVpIj/vAYEMLpJ+OjFQLYHAWbY2Gb1JaQK0Cbj46WvhTq5bBPDvRl6PGlLYLdeejgqVNhV7KmIFjX2fhRYEBggZoy2MAHzTGgNR62J6OdfpiFjpa2AJ2unuuw5xrUFUFtAdTkwUfZoCsddMrgA/GbpjSwuvJxYFgslt4q2MCHzTGwJRagG5JifWQ9ykF7r7kKNVdBdx7ovgIfZsGuDJSxNilsjsI6CuxkIOduEIvAxlpBvQA2R+MkYtAmhR2IBHZlonU/ykblYRboygSdabBTBtqT4IN4eD8c66v9iDAsMyOgPsaKgXISBx8kgPZk2CGD6lSUGXUaRACpoCMZ5aE1HrbEWO5GWgwDHxEGWF7EWtJBgxBlgygtcaBVglbcngjbk2B7MspAWyJ4IIGtYnSLGgSWljRgJuG3WRI+jGzsJTbUCO4LYXM0QNmIQU+tlljYGoc2Hi1dAlrFqNsSS3CCuxHr/bc23O1RyMQAK8tYRz6sxy96cwxojgZNMWjX8XuPqAi8JjxdjUKsNdOy9Nye1W/4kokBIbQYH1saJLBJaF209YDh937jsCElCmuItzzVb6zDToVkDETysw5rTICN+I/CXyydOGkxsCnackeIDdbbufSt7uRjQAwztxQsV7Es90WwybZ04kShay0y115arBZgL6a2rsNO/T1gvJ5/WSeZVoQuKNkrdbz1OwLsnhC7J1y/I1i5yXtVxX5WETZ7g0XKc3YDnkyMdQwzTD970ak0VjCmVExDJXOmkmlUsp8r2S9U7LlK1rNKpkHJnFKxninoz7t+XDSZyfpi99djAACWl5efzz0fHR1Vq9V1dTcLi4qSk1I6ctjPVWGGKrZBxUIwSpZByZmu4hhUHIMKDRpUrOdKxt1sUfrl7PLy8vr6+92a7vHxMaPRaFo2WSyWjT3eufLOGCaTaeKniba2NpVKlZOTk5SYKBKJIiMjeTxeJJ8fwRekRl/qK2QYq5jTVezpKs5MTaSxNmruZoyxLma2RjjzA89YxRouYqRGh4dHCiIiIgjH6OioRKk0OztboVDU19ePj4+vvsvXcO+GMTY2du3aNVGUiMViMxgMNpvN5XK4XA6Hw2Gx2SwWi8lkhjFZGUKGNo8+q+TM34yav5fwsjFloSltoSFl4a5krkagL2BkicLCmEwGCwmbzeZwuFwu5xKXw2azmSwmg8kQCoVKpXJpcXGHCXkHjOnpaT6fHxwUFHIxhEaj0XGhIQmlheKttUMLCaUJWaHVifTHpbzZWsmLe7IX9WkztQkjJTxlIiOGE3rR5kHHvWmh1j4Rk06nB18MDgoKLCwsxDBsJyQ7xXjz5k2KTObr6xsUFBQUuClBgYHWLt5sdM9fQOOCsMB03sUrwpAcQags/CKPhhwDLlh9COMt9ZbAQYEBAQFUKrW9vZ1MDK1G4+3tRaVS/dDbz88Pr/Caijqb1cYklUr97hzV5yxezlB9z1LPnPM7h0w3fDcV5I96xAiK4efnd/r0aVFUlMlk2pZkp9nIvZLr6enxne93Pr4+Pr428fHxRS9U8Ddq8CGriQ+ytc4TBj5IrLabcZAb3iMmbR7fnj595syZ3t5ecjBMJlMYne7p6enl7e3t5U3UqPHy9kI1LvgwUeGjaJaYthkRA17ICffd8EBdZLT1ZY165OgRpVJJDsbY2NjJkyeOHjnqQYjnL1pPD49j1oFNxTbgsWXS5rZljlCJCVuQYx4em5aHDx9OTEwkB6Ozs/MrXNw3xc3d3d0NfxGKG+qiYmvd3N3QPNHf8LO6fG01RQ1uYzOzdmzR3FxcXC5cuLC43ZN3R3fj1q1bhw4ePHTokKuri6uLC1G7INUF1a6uaMQV7yIFlc037oFbokE0Y3MijFAAmzUenoiKW7m6HDhw4OjRI0aj8e0J2SmGs7Ozk5OT81tkn/M+Z2dnokZm+1DZu/c/PJCNs/NeZ+d9hLXVEh/F53AHwgvVe/bsOXjw4Pj4OAkYdXV1FApl165dux0IoaCGghfryGaDzzk4UCgUBwrSrX1bS8EVfGbD5xdhcVeKA8WRQvmnoyOF4rBnz5dqtdpejPX19YGBAZlMJk2QSiQJ8RKJWCyOiY2Njo4WiUQCgYDP50dERISHh3O5lzgc/AMFk8lgMBhhDDo9jE6n02n4i04PC6MzGGFMBoPJZOIfZLiXLl0KD+dFRETwI/lCoTAqOio2NlYsjpdKpbKUlMzMzOzs7IKC/ImJibf/ON/+UK2tra2urq6srCwvLy8tLS0sLMzPzxuNxpmZGYPB8PTp08nJyYmJibGxseHh4cHBwf7+fr1e39PTo9PpNBpNt6abEI1Go9VqdTpdb0+PXq/v7+8fGhoaGRkZHx+fmJiYnJycmpqanp6enZ2dm5ubf/lycXHRZDKZzWZiAevr629JyPYYwCYQQgCAxWLBMOwNLmu4EJBmXJaXl00m02tclv5LiHGiNuFiNptXVlZWcSGiEZExDLPgYvvHt/nFZHuM/7kHAGwTl2AmfC0Wy07sCeOdW25d2K/E2BpiW31kZGRycnJbM3sM3jvG4uJidXV1bW2tnX9Pejvk+8UAAOh0OrlcXlpaOjQ09Pal2DP7fjGMRqNKpZKXy+VyeU1NzatX5P9PKgL+32gn7GTZIqOAAAAAAElFTkSuQmCC;" vertex="1" parent="WIyWlLk6GJQsqaUBKTNV-1">
          <mxGeometry x="440" y="640" width="66" height="61" as="geometry" />
        </mxCell>
        <mxCell id="j1Ywi0r_8y9m8VcGR0m9-30" value="" style="endArrow=classic;startArrow=classic;html=1;rounded=0;entryX=0.5;entryY=1;entryDx=0;entryDy=0;exitX=0.5;exitY=0;exitDx=0;exitDy=0;" edge="1" parent="WIyWlLk6GJQsqaUBKTNV-1" source="j1Ywi0r_8y9m8VcGR0m9-29" target="j1Ywi0r_8y9m8VcGR0m9-17">
          <mxGeometry width="50" height="50" relative="1" as="geometry">
            <mxPoint x="360" y="740" as="sourcePoint" />
            <mxPoint x="410" y="690" as="targetPoint" />
          </mxGeometry>
        </mxCell>
        <mxCell id="j1Ywi0r_8y9m8VcGR0m9-31" value="" style="endArrow=classic;startArrow=classic;html=1;rounded=0;entryX=0.5;entryY=1;entryDx=0;entryDy=0;exitX=0.75;exitY=0;exitDx=0;exitDy=0;" edge="1" parent="WIyWlLk6GJQsqaUBKTNV-1" source="j1Ywi0r_8y9m8VcGR0m9-29" target="j1Ywi0r_8y9m8VcGR0m9-28">
          <mxGeometry width="50" height="50" relative="1" as="geometry">
            <mxPoint x="503" y="640" as="sourcePoint" />
            <mxPoint x="424" y="541" as="targetPoint" />
          </mxGeometry>
        </mxCell>
        <mxCell id="j1Ywi0r_8y9m8VcGR0m9-32" value="WritingNode" style="rounded=1;whiteSpace=wrap;html=1;fontSize=12;glass=0;strokeWidth=1;shadow=0;" vertex="1" parent="WIyWlLk6GJQsqaUBKTNV-1">
          <mxGeometry x="293" y="440" width="120" height="40" as="geometry" />
        </mxCell>
        <mxCell id="j1Ywi0r_8y9m8VcGR0m9-35" value="" style="endArrow=classic;html=1;rounded=0;exitX=0;exitY=0.5;exitDx=0;exitDy=0;entryX=0.75;entryY=0;entryDx=0;entryDy=0;" edge="1" parent="WIyWlLk6GJQsqaUBKTNV-1" source="j1Ywi0r_8y9m8VcGR0m9-32" target="j1Ywi0r_8y9m8VcGR0m9-8">
          <mxGeometry width="50" height="50" relative="1" as="geometry">
            <mxPoint x="190" y="555" as="sourcePoint" />
            <mxPoint x="190" y="530" as="targetPoint" />
          </mxGeometry>
        </mxCell>
        <mxCell id="j1Ywi0r_8y9m8VcGR0m9-37" value="BatchMint" style="edgeLabel;html=1;align=center;verticalAlign=middle;resizable=0;points=[];" vertex="1" connectable="0" parent="j1Ywi0r_8y9m8VcGR0m9-35">
          <mxGeometry x="-0.5132" y="-3" relative="1" as="geometry">
            <mxPoint x="-20" as="offset" />
          </mxGeometry>
        </mxCell>
        <mxCell id="j1Ywi0r_8y9m8VcGR0m9-39" value="" style="endArrow=classic;html=1;rounded=0;exitX=0.625;exitY=0.96;exitDx=0;exitDy=0;entryX=0.5;entryY=0;entryDx=0;entryDy=0;exitPerimeter=0;" edge="1" parent="WIyWlLk6GJQsqaUBKTNV-1" source="j1Ywi0r_8y9m8VcGR0m9-9" target="j1Ywi0r_8y9m8VcGR0m9-0">
          <mxGeometry width="50" height="50" relative="1" as="geometry">
            <mxPoint x="390" y="176" as="sourcePoint" />
            <mxPoint x="350" y="340" as="targetPoint" />
          </mxGeometry>
        </mxCell>
        <mxCell id="j1Ywi0r_8y9m8VcGR0m9-40" value="Woods supplychain data" style="edgeLabel;html=1;align=center;verticalAlign=middle;resizable=0;points=[];" vertex="1" connectable="0" parent="j1Ywi0r_8y9m8VcGR0m9-39">
          <mxGeometry x="0.0634" relative="1" as="geometry">
            <mxPoint x="-13" y="-2" as="offset" />
          </mxGeometry>
        </mxCell>
        <mxCell id="j1Ywi0r_8y9m8VcGR0m9-41" value="" style="whiteSpace=wrap;html=1;aspect=fixed;dashed=1;" vertex="1" parent="WIyWlLk6GJQsqaUBKTNV-1">
          <mxGeometry x="610" y="520" width="90" height="90" as="geometry" />
        </mxCell>
        <mxCell id="j1Ywi0r_8y9m8VcGR0m9-43" value="Legend" style="text;html=1;align=center;verticalAlign=middle;resizable=0;points=[];autosize=1;strokeColor=none;fillColor=none;" vertex="1" parent="WIyWlLk6GJQsqaUBKTNV-1">
          <mxGeometry x="625" y="525" width="60" height="30" as="geometry" />
        </mxCell>
        <mxCell id="j1Ywi0r_8y9m8VcGR0m9-44" value="component" style="rounded=0;whiteSpace=wrap;html=1;" vertex="1" parent="WIyWlLk6GJQsqaUBKTNV-1">
          <mxGeometry x="625" y="550" width="60" height="30" as="geometry" />
        </mxCell>
        <mxCell id="j1Ywi0r_8y9m8VcGR0m9-89" value="" style="endArrow=classic;html=1;rounded=0;exitX=0.5;exitY=1;exitDx=0;exitDy=0;entryX=0.5;entryY=0;entryDx=0;entryDy=0;" edge="1" parent="WIyWlLk6GJQsqaUBKTNV-1" source="j1Ywi0r_8y9m8VcGR0m9-1" target="WIyWlLk6GJQsqaUBKTNV-11">
          <mxGeometry width="50" height="50" relative="1" as="geometry">
            <mxPoint x="423" y="241" as="sourcePoint" />
            <mxPoint x="350" y="340" as="targetPoint" />
            <Array as="points" />
          </mxGeometry>
        </mxCell>
        <mxCell id="j1Ywi0r_8y9m8VcGR0m9-90" value="Woods supplychain data" style="edgeLabel;html=1;align=center;verticalAlign=middle;resizable=0;points=[];" vertex="1" connectable="0" parent="j1Ywi0r_8y9m8VcGR0m9-89">
          <mxGeometry x="0.0634" relative="1" as="geometry">
            <mxPoint y="18" as="offset" />
          </mxGeometry>
        </mxCell>
        <mxCell id="j1Ywi0r_8y9m8VcGR0m9-91" value="" style="endArrow=classic;startArrow=classic;html=1;rounded=0;" edge="1" parent="WIyWlLk6GJQsqaUBKTNV-1">
          <mxGeometry width="50" height="50" relative="1" as="geometry">
            <mxPoint x="630" y="590" as="sourcePoint" />
            <mxPoint x="680" y="590" as="targetPoint" />
          </mxGeometry>
        </mxCell>
        <mxCell id="j1Ywi0r_8y9m8VcGR0m9-92" value="Data flow" style="edgeLabel;html=1;align=center;verticalAlign=middle;resizable=0;points=[];" vertex="1" connectable="0" parent="j1Ywi0r_8y9m8VcGR0m9-91">
          <mxGeometry x="-0.0706" y="-4" relative="1" as="geometry">
            <mxPoint x="1" y="6" as="offset" />
          </mxGeometry>
        </mxCell>
        <mxCell id="j1Ywi0r_8y9m8VcGR0m9-93" value="" style="endArrow=classic;html=1;rounded=0;exitX=0;exitY=0.5;exitDx=0;exitDy=0;entryX=1;entryY=0.5;entryDx=0;entryDy=0;" edge="1" parent="WIyWlLk6GJQsqaUBKTNV-1" source="j1Ywi0r_8y9m8VcGR0m9-17" target="j1Ywi0r_8y9m8VcGR0m9-8">
          <mxGeometry width="50" height="50" relative="1" as="geometry">
            <mxPoint x="570" y="370" as="sourcePoint" />
            <mxPoint x="370" y="460" as="targetPoint" />
          </mxGeometry>
        </mxCell>
        <mxCell id="j1Ywi0r_8y9m8VcGR0m9-95" value="Text" style="edgeLabel;html=1;align=center;verticalAlign=middle;resizable=0;points=[];" vertex="1" connectable="0" parent="j1Ywi0r_8y9m8VcGR0m9-93">
          <mxGeometry x="-0.0065" y="-2" relative="1" as="geometry">
            <mxPoint as="offset" />
          </mxGeometry>
        </mxCell>
        <mxCell id="j1Ywi0r_8y9m8VcGR0m9-97" value="RedaingData" style="edgeLabel;html=1;align=center;verticalAlign=middle;resizable=0;points=[];" vertex="1" connectable="0" parent="j1Ywi0r_8y9m8VcGR0m9-93">
          <mxGeometry x="-0.0609" y="-1" relative="1" as="geometry">
            <mxPoint as="offset" />
          </mxGeometry>
        </mxCell>
        <mxCell id="j1Ywi0r_8y9m8VcGR0m9-98" style="edgeStyle=orthogonalEdgeStyle;rounded=0;orthogonalLoop=1;jettySize=auto;html=1;exitX=0.5;exitY=1;exitDx=0;exitDy=0;" edge="1" parent="WIyWlLk6GJQsqaUBKTNV-1" source="j1Ywi0r_8y9m8VcGR0m9-32" target="j1Ywi0r_8y9m8VcGR0m9-32">
          <mxGeometry relative="1" as="geometry" />
        </mxCell>
      </root>
    </mxGraphModel>
  </diagram>
</mxfile>
